<mxfile host="app.diagrams.net" modified="2024-05-17T05:26:25.498Z" agent="Mozilla/5.0 (Windows NT 10.0; Win64; x64) AppleWebKit/537.36 (KHTML, like Gecko) Chrome/124.0.0.0 Safari/537.36 Edg/124.0.0.0" etag="zVSi6krtQSUVWnconV34" version="24.4.0" type="device">
  <diagram id="k6TtI4Z7gBhU_akrPcxZ" name="第 1 页">
    <mxGraphModel dx="308" dy="-10020" grid="0" gridSize="10" guides="0" tooltips="1" connect="1" arrows="1" fold="1" page="1" pageScale="1" pageWidth="270" pageHeight="120" math="0" shadow="0">
      <root>
        <mxCell id="0" />
        <mxCell id="1" parent="0" />
        <mxCell id="373" value="&lt;span style=&quot;border-color: var(--border-color); color: rgb(0, 0, 0); font-family: &amp;quot;Linux Libertine&amp;quot;; font-variant-ligatures: normal; font-variant-caps: normal; font-weight: 400; letter-spacing: normal; orphans: 2; text-indent: 0px; text-transform: none; widows: 2; word-spacing: 0px; -webkit-text-stroke-width: 0px; text-decoration-thickness: initial; text-decoration-style: initial; text-decoration-color: initial;&quot;&gt;&lt;font style=&quot;font-size: 8px;&quot;&gt;Matrix/Edge Fifo&lt;/font&gt;&lt;/span&gt;" style="text;whiteSpace=wrap;html=1;align=center;" parent="1" vertex="1">
          <mxGeometry x="45" y="10204" width="63" height="27" as="geometry" />
        </mxCell>
        <mxCell id="400" value="&lt;span style=&quot;border-color: var(--border-color); color: rgb(0, 0, 0); font-family: &amp;quot;Linux Libertine&amp;quot;; font-variant-ligatures: normal; font-variant-caps: normal; font-weight: 400; letter-spacing: normal; orphans: 2; text-align: center; text-indent: 0px; text-transform: none; widows: 2; word-spacing: 0px; -webkit-text-stroke-width: 0px; background-color: rgb(251, 251, 251); text-decoration-thickness: initial; text-decoration-style: initial; text-decoration-color: initial;&quot;&gt;&lt;i style=&quot;&quot;&gt;&lt;font style=&quot;font-size: 9px;&quot;&gt;src&lt;/font&gt;&lt;/i&gt;&lt;/span&gt;" style="text;whiteSpace=wrap;html=1;" parent="1" vertex="1">
          <mxGeometry x="30" y="10227" width="18" height="21" as="geometry" />
        </mxCell>
        <mxCell id="401" value="&lt;span style=&quot;border-color: var(--border-color); color: rgb(0, 0, 0); font-family: &amp;quot;Linux Libertine&amp;quot;; font-variant-ligatures: normal; font-variant-caps: normal; font-weight: 400; letter-spacing: normal; orphans: 2; text-align: center; text-indent: 0px; text-transform: none; widows: 2; word-spacing: 0px; -webkit-text-stroke-width: 0px; background-color: rgb(251, 251, 251); text-decoration-thickness: initial; text-decoration-style: initial; text-decoration-color: initial;&quot;&gt;&lt;i style=&quot;&quot;&gt;&lt;font style=&quot;font-size: 9px;&quot;&gt;dst&lt;/font&gt;&lt;/i&gt;&lt;/span&gt;" style="text;whiteSpace=wrap;html=1;" parent="1" vertex="1">
          <mxGeometry x="29" y="10241" width="16" height="19" as="geometry" />
        </mxCell>
        <mxCell id="402" value="&lt;span style=&quot;border-color: var(--border-color); color: rgb(0, 0, 0); font-family: &amp;quot;Linux Libertine&amp;quot;; font-variant-ligatures: normal; font-variant-caps: normal; font-weight: 400; letter-spacing: normal; orphans: 2; text-align: center; text-indent: 0px; text-transform: none; widows: 2; word-spacing: 0px; -webkit-text-stroke-width: 0px; background-color: rgb(251, 251, 251); text-decoration-thickness: initial; text-decoration-style: initial; text-decoration-color: initial;&quot;&gt;&lt;i style=&quot;&quot;&gt;&lt;font style=&quot;font-size: 9px;&quot;&gt;value&lt;/font&gt;&lt;/i&gt;&lt;/span&gt;" style="text;whiteSpace=wrap;html=1;" parent="1" vertex="1">
          <mxGeometry x="25" y="10256" width="23" height="27" as="geometry" />
        </mxCell>
        <mxCell id="410" value="&lt;span style=&quot;border-color: var(--border-color); color: rgb(0, 0, 0); font-family: &amp;quot;Linux Libertine&amp;quot;; font-variant-ligatures: normal; font-variant-caps: normal; font-weight: 400; letter-spacing: normal; orphans: 2; text-indent: 0px; text-transform: none; widows: 2; word-spacing: 0px; -webkit-text-stroke-width: 0px; text-decoration-thickness: initial; text-decoration-style: initial; text-decoration-color: initial;&quot;&gt;&lt;font style=&quot;font-size: 8px;&quot;&gt;Vector/Vertex RAM&lt;/font&gt;&lt;/span&gt;" style="text;whiteSpace=wrap;html=1;align=center;" parent="1" vertex="1">
          <mxGeometry x="111" y="10204" width="70" height="27" as="geometry" />
        </mxCell>
        <mxCell id="484" value="&lt;span style=&quot;font-family: &amp;quot;Linux Libertine&amp;quot;; text-align: center;&quot;&gt;&lt;font color=&quot;#4d4d4d&quot; style=&quot;font-size: 8px;&quot;&gt;&lt;i&gt;Read&lt;/i&gt;&lt;/font&gt;&lt;/span&gt;" style="text;whiteSpace=wrap;html=1;" parent="1" vertex="1">
          <mxGeometry x="66" y="10282" width="31" height="27" as="geometry" />
        </mxCell>
        <mxCell id="503" value="&lt;span style=&quot;font-family: &amp;quot;Linux Libertine&amp;quot;; text-align: center;&quot;&gt;&lt;font color=&quot;#4d4d4d&quot; style=&quot;font-size: 8px;&quot;&gt;&lt;i&gt;Accumulate&lt;/i&gt;&lt;/font&gt;&lt;/span&gt;" style="text;whiteSpace=wrap;html=1;" parent="1" vertex="1">
          <mxGeometry x="123" y="10282" width="42" height="20" as="geometry" />
        </mxCell>
        <mxCell id="533" value="&lt;span style=&quot;font-family: &amp;quot;Linux Libertine&amp;quot;; text-align: center;&quot;&gt;&lt;font color=&quot;#4d4d4d&quot; style=&quot;font-size: 8px;&quot;&gt;&lt;i&gt;Write Back&lt;/i&gt;&lt;/font&gt;&lt;/span&gt;" style="text;whiteSpace=wrap;html=1;" parent="1" vertex="1">
          <mxGeometry x="190" y="10282" width="38" height="24" as="geometry" />
        </mxCell>
        <mxCell id="552" value="" style="endArrow=none;html=1;rounded=0;strokeWidth=0.5;fontSize=10;fontColor=#4D4D4D;dashed=1;" parent="1" edge="1">
          <mxGeometry width="50" height="50" relative="1" as="geometry">
            <mxPoint x="114" y="10290" as="sourcePoint" />
            <mxPoint x="114" y="10308" as="targetPoint" />
          </mxGeometry>
        </mxCell>
        <mxCell id="665" style="edgeStyle=orthogonalEdgeStyle;rounded=0;html=1;entryX=0.007;entryY=0.866;entryDx=0;entryDy=0;entryPerimeter=0;strokeWidth=0.5;fontFamily=Linux Libertine;fontSource=https%3A%2F%2Ffonts.googleapis.com%2Fcss%3Ffamily%3DLinux%2BLibertine;endArrow=none;endFill=0;dashed=1;fillColor=#fff2cc;strokeColor=#d6b656;" parent="1" source="652" target="660" edge="1">
          <mxGeometry relative="1" as="geometry">
            <Array as="points">
              <mxPoint x="169" y="10281" />
            </Array>
          </mxGeometry>
        </mxCell>
        <mxCell id="657" style="edgeStyle=orthogonalEdgeStyle;rounded=0;html=1;entryX=0;entryY=0.5;entryDx=0;entryDy=0;entryPerimeter=0;strokeWidth=0.5;fontFamily=Linux Libertine;fontSource=https%3A%2F%2Ffonts.googleapis.com%2Fcss%3Ffamily%3DLinux%2BLibertine;endArrow=none;endFill=0;" parent="1" source="653" target="654" edge="1">
          <mxGeometry relative="1" as="geometry" />
        </mxCell>
        <mxCell id="653" value="" style="pointerEvents=1;verticalLabelPosition=bottom;shadow=0;dashed=0;align=center;html=1;verticalAlign=top;shape=mxgraph.electrical.miscellaneous.light_bulb;strokeWidth=0.5;fontFamily=Linux Libertine;fontSource=https%3A%2F%2Ffonts.googleapis.com%2Fcss%3Ffamily%3DLinux%2BLibertine;fillColor=none;aspect=fixed;" parent="1" vertex="1">
          <mxGeometry x="127" y="10266" width="12" height="10" as="geometry" />
        </mxCell>
        <mxCell id="654" value="" style="verticalLabelPosition=bottom;shadow=0;dashed=0;align=center;html=1;verticalAlign=top;shape=mxgraph.electrical.abstract.summation_point;strokeWidth=0.5;fontFamily=Linux Libertine;fontSource=https%3A%2F%2Ffonts.googleapis.com%2Fcss%3Ffamily%3DLinux%2BLibertine;fillColor=none;aspect=fixed;" parent="1" vertex="1">
          <mxGeometry x="149" y="10266" width="10" height="10" as="geometry" />
        </mxCell>
        <mxCell id="664" style="edgeStyle=orthogonalEdgeStyle;rounded=0;html=1;entryX=1;entryY=0.5;entryDx=0;entryDy=0;entryPerimeter=0;strokeWidth=0.5;fontFamily=Linux Libertine;fontSource=https%3A%2F%2Ffonts.googleapis.com%2Fcss%3Ffamily%3DLinux%2BLibertine;endArrow=none;endFill=0;" parent="1" target="654" edge="1">
          <mxGeometry relative="1" as="geometry">
            <mxPoint x="169" y="10269" as="sourcePoint" />
            <Array as="points">
              <mxPoint x="169" y="10271" />
            </Array>
          </mxGeometry>
        </mxCell>
        <mxCell id="700" style="edgeStyle=orthogonalEdgeStyle;rounded=0;html=1;entryX=1;entryY=0.5;entryDx=0;entryDy=0;strokeWidth=0.5;fontFamily=Linux Libertine;fontSource=https%3A%2F%2Ffonts.googleapis.com%2Fcss%3Ffamily%3DLinux%2BLibertine;endArrow=none;endFill=0;dashed=1;fillColor=#fff2cc;strokeColor=#d6b656;" parent="1" source="660" target="697" edge="1">
          <mxGeometry relative="1" as="geometry">
            <Array as="points">
              <mxPoint x="191" y="10281" />
            </Array>
          </mxGeometry>
        </mxCell>
        <mxCell id="792" style="edgeStyle=orthogonalEdgeStyle;rounded=0;html=1;entryX=0.514;entryY=0.993;entryDx=0;entryDy=0;strokeWidth=0.5;fontFamily=Linux Libertine;fontSource=https%3A%2F%2Ffonts.googleapis.com%2Fcss%3Ffamily%3DLinux%2BLibertine;fontSize=8;endArrow=none;endFill=0;entryPerimeter=0;" parent="1" source="660" target="697" edge="1">
          <mxGeometry relative="1" as="geometry">
            <Array as="points">
              <mxPoint x="185" y="10271" />
            </Array>
          </mxGeometry>
        </mxCell>
        <mxCell id="660" value="" style="rounded=0;whiteSpace=wrap;html=1;strokeWidth=0.5;fontFamily=Linux Libertine;fontSource=https%3A%2F%2Ffonts.googleapis.com%2Fcss%3Ffamily%3DLinux%2BLibertine;fillColor=none;" parent="1" vertex="1">
          <mxGeometry x="169" y="10263" width="7" height="25" as="geometry" />
        </mxCell>
        <mxCell id="808" style="edgeStyle=orthogonalEdgeStyle;rounded=0;html=1;entryX=0.496;entryY=1.003;entryDx=0;entryDy=0;entryPerimeter=0;strokeWidth=0.5;fontFamily=Linux Libertine;fontSource=https%3A%2F%2Ffonts.googleapis.com%2Fcss%3Ffamily%3DLinux%2BLibertine;fontSize=8;endArrow=none;endFill=0;exitX=0.5;exitY=0;exitDx=0;exitDy=0;" parent="1" source="697" target="740" edge="1">
          <mxGeometry relative="1" as="geometry">
            <Array as="points">
              <mxPoint x="194" y="10275" />
              <mxPoint x="212" y="10275" />
            </Array>
          </mxGeometry>
        </mxCell>
        <mxCell id="697" value="" style="shape=trapezoid;perimeter=trapezoidPerimeter;whiteSpace=wrap;html=1;fixedSize=1;strokeWidth=0.5;fontFamily=Linux Libertine;fontSource=https%3A%2F%2Ffonts.googleapis.com%2Fcss%3Ffamily%3DLinux%2BLibertine;fillColor=none;rotation=90;size=2.612594488011382;" parent="1" vertex="1">
          <mxGeometry x="183" y="10269" width="16.5" height="4.5" as="geometry" />
        </mxCell>
        <mxCell id="715" value="" style="shape=table;html=1;whiteSpace=wrap;startSize=0;container=1;collapsible=0;childLayout=tableLayout;strokeWidth=0.5;fontFamily=Linux Libertine;fontSource=https%3A%2F%2Ffonts.googleapis.com%2Fcss%3Ffamily%3DLinux%2BLibertine;fontSize=8;fillColor=none;" parent="1" vertex="1">
          <mxGeometry x="55" y="10236" width="14" height="42" as="geometry" />
        </mxCell>
        <mxCell id="716" value="" style="shape=tableRow;horizontal=0;startSize=0;swimlaneHead=0;swimlaneBody=0;top=0;left=0;bottom=0;right=0;collapsible=0;dropTarget=0;fillColor=none;points=[[0,0.5],[1,0.5]];portConstraint=eastwest;strokeWidth=0.5;fontFamily=Linux Libertine;fontSource=https%3A%2F%2Ffonts.googleapis.com%2Fcss%3Ffamily%3DLinux%2BLibertine;fontSize=8;" parent="715" vertex="1">
          <mxGeometry width="14" height="14" as="geometry" />
        </mxCell>
        <mxCell id="717" value="1" style="shape=partialRectangle;html=1;whiteSpace=wrap;connectable=0;fillColor=none;top=0;left=0;bottom=0;right=0;overflow=hidden;strokeWidth=0.5;fontFamily=Linux Libertine;fontSource=https%3A%2F%2Ffonts.googleapis.com%2Fcss%3Ffamily%3DLinux%2BLibertine;fontSize=8;" parent="716" vertex="1">
          <mxGeometry width="14" height="14" as="geometry">
            <mxRectangle width="14" height="14" as="alternateBounds" />
          </mxGeometry>
        </mxCell>
        <mxCell id="718" value="" style="shape=tableRow;horizontal=0;startSize=0;swimlaneHead=0;swimlaneBody=0;top=0;left=0;bottom=0;right=0;collapsible=0;dropTarget=0;fillColor=none;points=[[0,0.5],[1,0.5]];portConstraint=eastwest;strokeWidth=0.5;fontFamily=Linux Libertine;fontSource=https%3A%2F%2Ffonts.googleapis.com%2Fcss%3Ffamily%3DLinux%2BLibertine;fontSize=8;" parent="715" vertex="1">
          <mxGeometry y="14" width="14" height="14" as="geometry" />
        </mxCell>
        <mxCell id="719" value="0" style="shape=partialRectangle;html=1;whiteSpace=wrap;connectable=0;fillColor=none;top=0;left=0;bottom=0;right=0;overflow=hidden;strokeWidth=0.5;fontFamily=Linux Libertine;fontSource=https%3A%2F%2Ffonts.googleapis.com%2Fcss%3Ffamily%3DLinux%2BLibertine;fontSize=8;" parent="718" vertex="1">
          <mxGeometry width="14" height="14" as="geometry">
            <mxRectangle width="14" height="14" as="alternateBounds" />
          </mxGeometry>
        </mxCell>
        <mxCell id="720" value="" style="shape=tableRow;horizontal=0;startSize=0;swimlaneHead=0;swimlaneBody=0;top=0;left=0;bottom=0;right=0;collapsible=0;dropTarget=0;fillColor=none;points=[[0,0.5],[1,0.5]];portConstraint=eastwest;strokeWidth=0.5;fontFamily=Linux Libertine;fontSource=https%3A%2F%2Ffonts.googleapis.com%2Fcss%3Ffamily%3DLinux%2BLibertine;fontSize=8;" parent="715" vertex="1">
          <mxGeometry y="28" width="14" height="14" as="geometry" />
        </mxCell>
        <mxCell id="721" value="1" style="shape=partialRectangle;html=1;whiteSpace=wrap;connectable=0;fillColor=none;top=0;left=0;bottom=0;right=0;overflow=hidden;strokeWidth=0.5;fontFamily=Linux Libertine;fontSource=https%3A%2F%2Ffonts.googleapis.com%2Fcss%3Ffamily%3DLinux%2BLibertine;fontSize=8;" parent="720" vertex="1">
          <mxGeometry width="14" height="14" as="geometry">
            <mxRectangle width="14" height="14" as="alternateBounds" />
          </mxGeometry>
        </mxCell>
        <mxCell id="735" value="" style="shape=table;html=1;whiteSpace=wrap;startSize=0;container=1;collapsible=0;childLayout=tableLayout;strokeWidth=0.5;fontFamily=Linux Libertine;fontSource=https%3A%2F%2Ffonts.googleapis.com%2Fcss%3Ffamily%3DLinux%2BLibertine;fontSize=8;fillColor=none;" parent="1" vertex="1">
          <mxGeometry x="205" y="10228" width="14" height="42" as="geometry" />
        </mxCell>
        <mxCell id="736" value="" style="shape=tableRow;horizontal=0;startSize=0;swimlaneHead=0;swimlaneBody=0;top=0;left=0;bottom=0;right=0;collapsible=0;dropTarget=0;fillColor=none;points=[[0,0.5],[1,0.5]];portConstraint=eastwest;strokeWidth=0.5;fontFamily=Linux Libertine;fontSource=https%3A%2F%2Ffonts.googleapis.com%2Fcss%3Ffamily%3DLinux%2BLibertine;fontSize=8;" parent="735" vertex="1">
          <mxGeometry width="14" height="14" as="geometry" />
        </mxCell>
        <mxCell id="737" value="" style="shape=partialRectangle;html=1;whiteSpace=wrap;connectable=0;fillColor=none;top=0;left=0;bottom=0;right=0;overflow=hidden;strokeWidth=0.5;fontFamily=Linux Libertine;fontSource=https%3A%2F%2Ffonts.googleapis.com%2Fcss%3Ffamily%3DLinux%2BLibertine;fontSize=8;" parent="736" vertex="1">
          <mxGeometry width="14" height="14" as="geometry">
            <mxRectangle width="14" height="14" as="alternateBounds" />
          </mxGeometry>
        </mxCell>
        <mxCell id="738" value="" style="shape=tableRow;horizontal=0;startSize=0;swimlaneHead=0;swimlaneBody=0;top=0;left=0;bottom=0;right=0;collapsible=0;dropTarget=0;fillColor=none;points=[[0,0.5],[1,0.5]];portConstraint=eastwest;strokeWidth=0.5;fontFamily=Linux Libertine;fontSource=https%3A%2F%2Ffonts.googleapis.com%2Fcss%3Ffamily%3DLinux%2BLibertine;fontSize=8;" parent="735" vertex="1">
          <mxGeometry y="14" width="14" height="14" as="geometry" />
        </mxCell>
        <mxCell id="739" value="2" style="shape=partialRectangle;html=1;whiteSpace=wrap;connectable=0;fillColor=#fff2cc;top=0;left=0;bottom=0;right=0;overflow=hidden;strokeWidth=0.5;fontFamily=Linux Libertine;fontSource=https%3A%2F%2Ffonts.googleapis.com%2Fcss%3Ffamily%3DLinux%2BLibertine;fontSize=8;strokeColor=#d6b656;" parent="738" vertex="1">
          <mxGeometry width="14" height="14" as="geometry">
            <mxRectangle width="14" height="14" as="alternateBounds" />
          </mxGeometry>
        </mxCell>
        <mxCell id="740" value="" style="shape=tableRow;horizontal=0;startSize=0;swimlaneHead=0;swimlaneBody=0;top=0;left=0;bottom=0;right=0;collapsible=0;dropTarget=0;fillColor=none;points=[[0,0.5],[1,0.5]];portConstraint=eastwest;strokeWidth=0.5;fontFamily=Linux Libertine;fontSource=https%3A%2F%2Ffonts.googleapis.com%2Fcss%3Ffamily%3DLinux%2BLibertine;fontSize=8;" parent="735" vertex="1">
          <mxGeometry y="28" width="14" height="14" as="geometry" />
        </mxCell>
        <mxCell id="741" value="" style="shape=partialRectangle;html=1;whiteSpace=wrap;connectable=0;fillColor=none;top=0;left=0;bottom=0;right=0;overflow=hidden;strokeWidth=0.5;fontFamily=Linux Libertine;fontSource=https%3A%2F%2Ffonts.googleapis.com%2Fcss%3Ffamily%3DLinux%2BLibertine;fontSize=8;" parent="740" vertex="1">
          <mxGeometry width="14" height="14" as="geometry">
            <mxRectangle width="14" height="14" as="alternateBounds" />
          </mxGeometry>
        </mxCell>
        <mxCell id="742" value="&lt;span style=&quot;border-color: var(--border-color); color: rgb(0, 0, 0); font-family: &amp;quot;Linux Libertine&amp;quot;; font-variant-ligatures: normal; font-variant-caps: normal; font-weight: 400; letter-spacing: normal; orphans: 2; text-indent: 0px; text-transform: none; widows: 2; word-spacing: 0px; -webkit-text-stroke-width: 0px; text-decoration-thickness: initial; text-decoration-style: initial; text-decoration-color: initial;&quot;&gt;&lt;font style=&quot;font-size: 8px;&quot;&gt;Result RAM&lt;/font&gt;&lt;/span&gt;" style="text;whiteSpace=wrap;html=1;align=center;" parent="1" vertex="1">
          <mxGeometry x="187" y="10204" width="44" height="21" as="geometry" />
        </mxCell>
        <mxCell id="749" value="" style="shape=table;html=1;whiteSpace=wrap;startSize=0;container=1;collapsible=0;childLayout=tableLayout;strokeWidth=0.5;fontFamily=Linux Libertine;fontSource=https%3A%2F%2Ffonts.googleapis.com%2Fcss%3Ffamily%3DLinux%2BLibertine;fontSize=8;fillColor=none;" parent="1" vertex="1">
          <mxGeometry x="123" y="10227" width="42" height="14" as="geometry" />
        </mxCell>
        <mxCell id="750" value="" style="shape=tableRow;horizontal=0;startSize=0;swimlaneHead=0;swimlaneBody=0;top=0;left=0;bottom=0;right=0;collapsible=0;dropTarget=0;fillColor=none;points=[[0,0.5],[1,0.5]];portConstraint=eastwest;strokeWidth=0.5;fontFamily=Linux Libertine;fontSource=https%3A%2F%2Ffonts.googleapis.com%2Fcss%3Ffamily%3DLinux%2BLibertine;fontSize=8;" parent="749" vertex="1">
          <mxGeometry width="42" height="14" as="geometry" />
        </mxCell>
        <mxCell id="751" value="3" style="shape=partialRectangle;html=1;whiteSpace=wrap;connectable=0;fillColor=none;top=0;left=0;bottom=0;right=0;overflow=hidden;strokeWidth=0.5;fontFamily=Linux Libertine;fontSource=https%3A%2F%2Ffonts.googleapis.com%2Fcss%3Ffamily%3DLinux%2BLibertine;fontSize=8;" parent="750" vertex="1">
          <mxGeometry width="14" height="14" as="geometry">
            <mxRectangle width="14" height="14" as="alternateBounds" />
          </mxGeometry>
        </mxCell>
        <mxCell id="752" value="2" style="shape=partialRectangle;html=1;whiteSpace=wrap;connectable=0;fillColor=none;top=0;left=0;bottom=0;right=0;overflow=hidden;strokeWidth=0.5;fontFamily=Linux Libertine;fontSource=https%3A%2F%2Ffonts.googleapis.com%2Fcss%3Ffamily%3DLinux%2BLibertine;fontSize=8;" parent="750" vertex="1">
          <mxGeometry x="14" width="14" height="14" as="geometry">
            <mxRectangle width="14" height="14" as="alternateBounds" />
          </mxGeometry>
        </mxCell>
        <mxCell id="753" value="1" style="shape=partialRectangle;html=1;whiteSpace=wrap;connectable=0;fillColor=none;top=0;left=0;bottom=0;right=0;overflow=hidden;strokeWidth=0.5;fontFamily=Linux Libertine;fontSource=https%3A%2F%2Ffonts.googleapis.com%2Fcss%3Ffamily%3DLinux%2BLibertine;fontSize=8;" parent="750" vertex="1">
          <mxGeometry x="28" width="14" height="14" as="geometry">
            <mxRectangle width="14" height="14" as="alternateBounds" />
          </mxGeometry>
        </mxCell>
        <mxCell id="762" value="" style="shape=table;html=1;whiteSpace=wrap;startSize=0;container=1;collapsible=0;childLayout=tableLayout;strokeWidth=0.5;fontFamily=Linux Libertine;fontSource=https%3A%2F%2Ffonts.googleapis.com%2Fcss%3Ffamily%3DLinux%2BLibertine;fontSize=8;fillColor=default;" parent="1" vertex="1">
          <mxGeometry x="83" y="10236" width="14" height="42" as="geometry" />
        </mxCell>
        <mxCell id="763" value="" style="shape=tableRow;horizontal=0;startSize=0;swimlaneHead=0;swimlaneBody=0;top=0;left=0;bottom=0;right=0;collapsible=0;dropTarget=0;fillColor=none;points=[[0,0.5],[1,0.5]];portConstraint=eastwest;strokeWidth=0.5;fontFamily=Linux Libertine;fontSource=https%3A%2F%2Ffonts.googleapis.com%2Fcss%3Ffamily%3DLinux%2BLibertine;fontSize=8;" parent="762" vertex="1">
          <mxGeometry width="14" height="14" as="geometry" />
        </mxCell>
        <mxCell id="766" value="2" style="shape=partialRectangle;html=1;whiteSpace=wrap;connectable=0;fillColor=#dae8fc;top=0;left=0;bottom=0;right=0;overflow=hidden;strokeWidth=0.5;fontFamily=Linux Libertine;fontSource=https%3A%2F%2Ffonts.googleapis.com%2Fcss%3Ffamily%3DLinux%2BLibertine;fontSize=8;strokeColor=#6c8ebf;" parent="763" vertex="1">
          <mxGeometry width="14" height="14" as="geometry">
            <mxRectangle width="14" height="14" as="alternateBounds" />
          </mxGeometry>
        </mxCell>
        <mxCell id="767" value="" style="shape=tableRow;horizontal=0;startSize=0;swimlaneHead=0;swimlaneBody=0;top=0;left=0;bottom=0;right=0;collapsible=0;dropTarget=0;fillColor=none;points=[[0,0.5],[1,0.5]];portConstraint=eastwest;strokeWidth=0.5;fontFamily=Linux Libertine;fontSource=https%3A%2F%2Ffonts.googleapis.com%2Fcss%3Ffamily%3DLinux%2BLibertine;fontSize=8;" parent="762" vertex="1">
          <mxGeometry y="14" width="14" height="14" as="geometry" />
        </mxCell>
        <mxCell id="770" value="1" style="shape=partialRectangle;html=1;whiteSpace=wrap;connectable=0;fillColor=#fff2cc;top=0;left=0;bottom=0;right=0;overflow=hidden;strokeWidth=0.5;fontFamily=Linux Libertine;fontSource=https%3A%2F%2Ffonts.googleapis.com%2Fcss%3Ffamily%3DLinux%2BLibertine;fontSize=8;strokeColor=#d6b656;" parent="767" vertex="1">
          <mxGeometry width="14" height="14" as="geometry">
            <mxRectangle width="14" height="14" as="alternateBounds" />
          </mxGeometry>
        </mxCell>
        <mxCell id="771" value="" style="shape=tableRow;horizontal=0;startSize=0;swimlaneHead=0;swimlaneBody=0;top=0;left=0;bottom=0;right=0;collapsible=0;dropTarget=0;fillColor=none;points=[[0,0.5],[1,0.5]];portConstraint=eastwest;strokeWidth=0.5;fontFamily=Linux Libertine;fontSource=https%3A%2F%2Ffonts.googleapis.com%2Fcss%3Ffamily%3DLinux%2BLibertine;fontSize=8;" parent="762" vertex="1">
          <mxGeometry y="28" width="14" height="14" as="geometry" />
        </mxCell>
        <mxCell id="774" value="2" style="shape=partialRectangle;html=1;whiteSpace=wrap;connectable=0;fillColor=#f5f5f5;top=0;left=0;bottom=0;right=0;overflow=hidden;strokeWidth=0.5;fontFamily=Linux Libertine;fontSource=https%3A%2F%2Ffonts.googleapis.com%2Fcss%3Ffamily%3DLinux%2BLibertine;fontSize=8;fontColor=#333333;strokeColor=#666666;" parent="771" vertex="1">
          <mxGeometry width="14" height="14" as="geometry">
            <mxRectangle width="14" height="14" as="alternateBounds" />
          </mxGeometry>
        </mxCell>
        <mxCell id="775" value="" style="shape=table;html=1;whiteSpace=wrap;startSize=0;container=1;collapsible=0;childLayout=tableLayout;strokeWidth=0.5;fontFamily=Linux Libertine;fontSource=https%3A%2F%2Ffonts.googleapis.com%2Fcss%3Ffamily%3DLinux%2BLibertine;fontSize=8;fillColor=none;" parent="1" vertex="1">
          <mxGeometry x="69" y="10236" width="14" height="42" as="geometry" />
        </mxCell>
        <mxCell id="776" value="" style="shape=tableRow;horizontal=0;startSize=0;swimlaneHead=0;swimlaneBody=0;top=0;left=0;bottom=0;right=0;collapsible=0;dropTarget=0;fillColor=none;points=[[0,0.5],[1,0.5]];portConstraint=eastwest;strokeWidth=0.5;fontFamily=Linux Libertine;fontSource=https%3A%2F%2Ffonts.googleapis.com%2Fcss%3Ffamily%3DLinux%2BLibertine;fontSize=8;" parent="775" vertex="1">
          <mxGeometry width="14" height="14" as="geometry" />
        </mxCell>
        <mxCell id="778" value="1" style="shape=partialRectangle;html=1;whiteSpace=wrap;connectable=0;fillColor=none;top=0;left=0;bottom=0;right=0;overflow=hidden;strokeWidth=0.5;fontFamily=Linux Libertine;fontSource=https%3A%2F%2Ffonts.googleapis.com%2Fcss%3Ffamily%3DLinux%2BLibertine;fontSize=8;" parent="776" vertex="1">
          <mxGeometry width="14" height="14" as="geometry">
            <mxRectangle width="14" height="14" as="alternateBounds" />
          </mxGeometry>
        </mxCell>
        <mxCell id="780" value="" style="shape=tableRow;horizontal=0;startSize=0;swimlaneHead=0;swimlaneBody=0;top=0;left=0;bottom=0;right=0;collapsible=0;dropTarget=0;fillColor=none;points=[[0,0.5],[1,0.5]];portConstraint=eastwest;strokeWidth=0.5;fontFamily=Linux Libertine;fontSource=https%3A%2F%2Ffonts.googleapis.com%2Fcss%3Ffamily%3DLinux%2BLibertine;fontSize=8;" parent="775" vertex="1">
          <mxGeometry y="14" width="14" height="14" as="geometry" />
        </mxCell>
        <mxCell id="782" value="0" style="shape=partialRectangle;html=1;whiteSpace=wrap;connectable=0;fillColor=none;top=0;left=0;bottom=0;right=0;overflow=hidden;strokeWidth=0.5;fontFamily=Linux Libertine;fontSource=https%3A%2F%2Ffonts.googleapis.com%2Fcss%3Ffamily%3DLinux%2BLibertine;fontSize=8;" parent="780" vertex="1">
          <mxGeometry width="14" height="14" as="geometry">
            <mxRectangle width="14" height="14" as="alternateBounds" />
          </mxGeometry>
        </mxCell>
        <mxCell id="784" value="" style="shape=tableRow;horizontal=0;startSize=0;swimlaneHead=0;swimlaneBody=0;top=0;left=0;bottom=0;right=0;collapsible=0;dropTarget=0;fillColor=none;points=[[0,0.5],[1,0.5]];portConstraint=eastwest;strokeWidth=0.5;fontFamily=Linux Libertine;fontSource=https%3A%2F%2Ffonts.googleapis.com%2Fcss%3Ffamily%3DLinux%2BLibertine;fontSize=8;" parent="775" vertex="1">
          <mxGeometry y="28" width="14" height="14" as="geometry" />
        </mxCell>
        <mxCell id="786" value="3" style="shape=partialRectangle;html=1;whiteSpace=wrap;connectable=0;fillColor=none;top=0;left=0;bottom=0;right=0;overflow=hidden;strokeWidth=0.5;fontFamily=Linux Libertine;fontSource=https%3A%2F%2Ffonts.googleapis.com%2Fcss%3Ffamily%3DLinux%2BLibertine;fontSize=8;" parent="784" vertex="1">
          <mxGeometry width="14" height="14" as="geometry">
            <mxRectangle width="14" height="14" as="alternateBounds" />
          </mxGeometry>
        </mxCell>
        <mxCell id="799" style="edgeStyle=orthogonalEdgeStyle;rounded=0;html=1;entryX=1;entryY=0.5;entryDx=0;entryDy=0;strokeWidth=0.5;fontFamily=Linux Libertine;fontSource=https%3A%2F%2Ffonts.googleapis.com%2Fcss%3Ffamily%3DLinux%2BLibertine;fontSize=8;endArrow=none;endFill=0;exitX=1.027;exitY=0.144;exitDx=0;exitDy=0;exitPerimeter=0;dashed=1;fillColor=#dae8fc;strokeColor=#6c8ebf;" parent="1" source="762" target="793" edge="1">
          <mxGeometry relative="1" as="geometry">
            <Array as="points">
              <mxPoint x="105" y="10242" />
              <mxPoint x="105" y="10251" />
            </Array>
            <mxPoint x="99.088" y="10241.952" as="sourcePoint" />
          </mxGeometry>
        </mxCell>
        <mxCell id="797" style="edgeStyle=orthogonalEdgeStyle;rounded=0;html=1;entryX=0.512;entryY=0.004;entryDx=0;entryDy=0;entryPerimeter=0;strokeWidth=0.5;fontFamily=Linux Libertine;fontSource=https%3A%2F%2Ffonts.googleapis.com%2Fcss%3Ffamily%3DLinux%2BLibertine;fontSize=8;endArrow=none;endFill=0;fillColor=#dae8fc;strokeColor=#6c8ebf;" parent="1" source="793" target="653" edge="1">
          <mxGeometry relative="1" as="geometry" />
        </mxCell>
        <mxCell id="793" value="" style="shape=trapezoid;perimeter=trapezoidPerimeter;whiteSpace=wrap;html=1;fixedSize=1;strokeWidth=0.5;fontFamily=Linux Libertine;fontSource=https%3A%2F%2Ffonts.googleapis.com%2Fcss%3Ffamily%3DLinux%2BLibertine;fillColor=#dae8fc;rotation=-180;size=2.612594488011382;strokeColor=#6c8ebf;" parent="1" vertex="1">
          <mxGeometry x="125" y="10249" width="16.5" height="4.5" as="geometry" />
        </mxCell>
        <mxCell id="794" style="edgeStyle=orthogonalEdgeStyle;rounded=0;html=1;strokeWidth=0.5;fontFamily=Linux Libertine;fontSource=https%3A%2F%2Ffonts.googleapis.com%2Fcss%3Ffamily%3DLinux%2BLibertine;fontSize=8;endArrow=none;endFill=0;entryX=0.75;entryY=1;entryDx=0;entryDy=0;" parent="1" source="750" target="793" edge="1">
          <mxGeometry relative="1" as="geometry">
            <mxPoint x="130" y="10248" as="targetPoint" />
            <Array as="points">
              <mxPoint x="128" y="10249" />
            </Array>
          </mxGeometry>
        </mxCell>
        <mxCell id="795" style="edgeStyle=orthogonalEdgeStyle;rounded=0;html=1;entryX=0.5;entryY=1;entryDx=0;entryDy=0;strokeWidth=0.5;fontFamily=Linux Libertine;fontSource=https%3A%2F%2Ffonts.googleapis.com%2Fcss%3Ffamily%3DLinux%2BLibertine;fontSize=8;endArrow=none;endFill=0;" parent="1" source="750" target="793" edge="1">
          <mxGeometry relative="1" as="geometry">
            <Array as="points">
              <mxPoint x="142" y="10244" />
              <mxPoint x="133" y="10244" />
            </Array>
          </mxGeometry>
        </mxCell>
        <mxCell id="796" style="edgeStyle=orthogonalEdgeStyle;rounded=0;html=1;entryX=0.25;entryY=1;entryDx=0;entryDy=0;strokeWidth=0.5;fontFamily=Linux Libertine;fontSource=https%3A%2F%2Ffonts.googleapis.com%2Fcss%3Ffamily%3DLinux%2BLibertine;fontSize=8;endArrow=none;endFill=0;fillColor=#dae8fc;strokeColor=#6c8ebf;" parent="1" source="750" target="793" edge="1">
          <mxGeometry relative="1" as="geometry">
            <Array as="points">
              <mxPoint x="158" y="10246" />
              <mxPoint x="137" y="10246" />
            </Array>
          </mxGeometry>
        </mxCell>
        <mxCell id="800" style="edgeStyle=orthogonalEdgeStyle;rounded=0;html=1;strokeWidth=0.5;fontFamily=Linux Libertine;fontSource=https%3A%2F%2Ffonts.googleapis.com%2Fcss%3Ffamily%3DLinux%2BLibertine;fontSize=8;endArrow=none;endFill=0;entryX=0.938;entryY=0.58;entryDx=0;entryDy=0;entryPerimeter=0;dashed=1;fillColor=#fff2cc;strokeColor=#d6b656;" parent="1" source="767" target="801" edge="1">
          <mxGeometry relative="1" as="geometry">
            <mxPoint x="176" y="10237" as="targetPoint" />
            <Array as="points">
              <mxPoint x="168" y="10257" />
              <mxPoint x="168" y="10233" />
              <mxPoint x="190" y="10233" />
            </Array>
          </mxGeometry>
        </mxCell>
        <mxCell id="802" style="edgeStyle=orthogonalEdgeStyle;rounded=0;html=1;entryX=0.5;entryY=0;entryDx=0;entryDy=0;entryPerimeter=0;strokeWidth=0.5;fontFamily=Linux Libertine;fontSource=https%3A%2F%2Ffonts.googleapis.com%2Fcss%3Ffamily%3DLinux%2BLibertine;fontSize=8;endArrow=none;endFill=0;exitX=0.5;exitY=0;exitDx=0;exitDy=0;fillColor=#fff2cc;strokeColor=#d6b656;" parent="1" source="801" target="654" edge="1">
          <mxGeometry relative="1" as="geometry">
            <Array as="points">
              <mxPoint x="173" y="10240" />
              <mxPoint x="173" y="10261" />
              <mxPoint x="154" y="10261" />
            </Array>
          </mxGeometry>
        </mxCell>
        <mxCell id="801" value="" style="shape=trapezoid;perimeter=trapezoidPerimeter;whiteSpace=wrap;html=1;fixedSize=1;strokeWidth=0.5;fontFamily=Linux Libertine;fontSource=https%3A%2F%2Ffonts.googleapis.com%2Fcss%3Ffamily%3DLinux%2BLibertine;fillColor=#fff2cc;rotation=-90;size=2.612594488011382;strokeColor=#d6b656;" parent="1" vertex="1">
          <mxGeometry x="183" y="10238" width="16.5" height="4.5" as="geometry" />
        </mxCell>
        <mxCell id="803" style="edgeStyle=orthogonalEdgeStyle;rounded=0;html=1;entryX=0.75;entryY=1;entryDx=0;entryDy=0;strokeWidth=0.5;fontFamily=Linux Libertine;fontSource=https%3A%2F%2Ffonts.googleapis.com%2Fcss%3Ffamily%3DLinux%2BLibertine;fontSize=8;endArrow=none;endFill=0;" parent="1" source="736" target="801" edge="1">
          <mxGeometry relative="1" as="geometry">
            <Array as="points">
              <mxPoint x="194" y="10235" />
            </Array>
          </mxGeometry>
        </mxCell>
        <mxCell id="804" style="edgeStyle=orthogonalEdgeStyle;rounded=0;html=1;entryX=0.5;entryY=1;entryDx=0;entryDy=0;strokeWidth=0.5;fontFamily=Linux Libertine;fontSource=https%3A%2F%2Ffonts.googleapis.com%2Fcss%3Ffamily%3DLinux%2BLibertine;fontSize=8;endArrow=none;endFill=0;fillColor=#fff2cc;strokeColor=#d6b656;" parent="1" source="738" target="801" edge="1">
          <mxGeometry relative="1" as="geometry">
            <Array as="points">
              <mxPoint x="201" y="10250" />
              <mxPoint x="201" y="10240" />
            </Array>
          </mxGeometry>
        </mxCell>
        <mxCell id="805" style="edgeStyle=orthogonalEdgeStyle;rounded=0;html=1;entryX=0.25;entryY=1;entryDx=0;entryDy=0;strokeWidth=0.5;fontFamily=Linux Libertine;fontSource=https%3A%2F%2Ffonts.googleapis.com%2Fcss%3Ffamily%3DLinux%2BLibertine;fontSize=8;endArrow=none;endFill=0;" parent="1" source="740" target="801" edge="1">
          <mxGeometry relative="1" as="geometry">
            <Array as="points">
              <mxPoint x="198" y="10264" />
              <mxPoint x="198" y="10244" />
            </Array>
          </mxGeometry>
        </mxCell>
        <mxCell id="807" style="edgeStyle=orthogonalEdgeStyle;rounded=0;html=1;entryX=1.017;entryY=0.907;entryDx=0;entryDy=0;entryPerimeter=0;strokeWidth=0.5;fontFamily=Linux Libertine;fontSource=https%3A%2F%2Ffonts.googleapis.com%2Fcss%3Ffamily%3DLinux%2BLibertine;fontSize=8;endArrow=none;endFill=0;dashed=1;fillColor=#fff2cc;strokeColor=#d6b656;" parent="1" source="767" target="652" edge="1">
          <mxGeometry relative="1" as="geometry">
            <Array as="points">
              <mxPoint x="105" y="10257" />
              <mxPoint x="105" y="10281" />
            </Array>
          </mxGeometry>
        </mxCell>
        <mxCell id="809" style="edgeStyle=orthogonalEdgeStyle;rounded=0;html=1;entryX=0;entryY=0.5;entryDx=0;entryDy=0;entryPerimeter=0;strokeWidth=0.5;fontFamily=Linux Libertine;fontSource=https%3A%2F%2Ffonts.googleapis.com%2Fcss%3Ffamily%3DLinux%2BLibertine;fontSize=8;endArrow=none;endFill=0;fillColor=#f5f5f5;strokeColor=#666666;" parent="1" source="771" target="653" edge="1">
          <mxGeometry relative="1" as="geometry" />
        </mxCell>
        <mxCell id="652" value="" style="rounded=0;whiteSpace=wrap;html=1;strokeWidth=0.5;fontFamily=Linux Libertine;fontSource=https%3A%2F%2Ffonts.googleapis.com%2Fcss%3Ffamily%3DLinux%2BLibertine;fillColor=default;" parent="1" vertex="1">
          <mxGeometry x="110" y="10227" width="7" height="60" as="geometry" />
        </mxCell>
        <mxCell id="810" value="" style="endArrow=none;html=1;rounded=0;strokeWidth=0.5;fontSize=10;fontColor=#4D4D4D;dashed=1;" parent="1" edge="1">
          <mxGeometry width="50" height="50" relative="1" as="geometry">
            <mxPoint x="173" y="10290" as="sourcePoint" />
            <mxPoint x="173" y="10308" as="targetPoint" />
          </mxGeometry>
        </mxCell>
      </root>
    </mxGraphModel>
  </diagram>
</mxfile>
